<svg width="40" height="40" viewBox="0 0 40 40" fill="none" xmlns="http://www.w3.org/2000/svg">
<rect x="0.5" y="0.5" width="39" height="39" rx="19.5" fill="white"/>
<rect x="0.5" y="0.5" width="39" height="39" rx="19.5" stroke="#E3E3E3"/>
<path d="M32.5 20.3056C32.5 19.4444 32.4166 18.5555 32.2777 17.7222H20.2498V22.6389H27.1388C26.861 24.2223 25.9443 25.6112 24.5832 26.5001L28.6944 29.6945C31.111 27.4445 32.5 24.1667 32.5 20.3056Z" fill="#4280EF"/>
<path d="M20.2499 32.7501C23.6943 32.7501 26.5833 31.6112 28.6944 29.6668L24.5832 26.5001C23.4443 27.2779 21.9721 27.7223 20.2499 27.7223C16.9165 27.7223 14.1109 25.4723 13.0831 22.4723L8.86084 25.7223C11.0275 30.0279 15.4165 32.7501 20.2499 32.7501Z" fill="#34A353"/>
<path d="M13.0831 22.4445C12.5553 20.8611 12.5553 19.1389 13.0831 17.5556L8.86083 14.2777C7.05526 17.8889 7.05526 22.1389 8.86083 25.7223L13.0831 22.4445Z" fill="#F6B704"/>
<path d="M20.2499 12.3055C22.0554 12.2777 23.8332 12.9722 25.1388 14.2222L28.7777 10.5555C26.4721 8.38878 23.4166 7.2221 20.2499 7.24987C15.4165 7.24987 11.0275 9.97213 8.86084 14.2777L13.0831 17.5555C14.1109 14.5277 16.9165 12.3055 20.2499 12.3055Z" fill="#E54335"/>
</svg>
